<svg xmlns="http://www.w3.org/2000/svg" xmlns:xlink="http://www.w3.org/1999/xlink" width="500" zoomAndPan="magnify" viewBox="0 0 375 374.999991" height="500" preserveAspectRatio="xMidYMid meet" version="1.0"><defs><g/></defs><g fill="#3f0c9d" fill-opacity="1"><g transform="translate(88.416017, 228.768911)"><g><path d="M 1.21875 0 L 1.21875 -85.6875 L 31.296875 -85.6875 L 31.296875 -42.421875 L 45.234375 -68.578125 L 76.890625 -68.578125 L 57.6875 -34.34375 L 79.203125 0 L 47.546875 0 L 31.296875 -27.140625 L 31.296875 0 Z M 1.21875 0 "/></g></g></g><path stroke-linecap="butt" transform="matrix(0.75, 0, 0, 0.75, 141.693394, 113.047617)" fill="none" stroke-linejoin="miter" d="M 60.481729 57.426097 L 89.914023 57.426097 L 89.914023 91.493808 C 89.914023 97.191725 88.940064 102.196934 86.986939 106.504225 C 85.054647 110.811517 82.429647 114.410476 79.10673 117.30631 C 75.789022 120.186518 72.070272 122.33756 67.955688 123.769852 C 63.841104 125.196935 59.648396 125.910477 55.382771 125.910477 C 51.03902 125.910477 46.809853 125.196935 42.69527 123.769852 C 38.580686 122.33756 34.861936 120.186518 31.539019 117.30631 C 28.216102 114.410476 25.580685 110.811517 23.632768 106.504225 C 21.700477 102.196934 20.736935 97.191725 20.736935 91.493808 L 20.736935 57.426097 L 50.169229 57.426097 L 50.169229 90.306308 C 50.169229 92.353183 50.716104 93.900058 51.82027 94.941725 C 52.919229 95.967766 54.106729 96.478183 55.382771 96.478183 C 56.658812 96.478183 57.825479 95.967766 58.887979 94.941725 C 59.950479 93.900058 60.481729 92.353183 60.481729 90.306308 Z M 60.481729 57.426097 " stroke="#fff9f9" stroke-width="8.900025" stroke-opacity="1" stroke-miterlimit="4"/><g fill="#3f0c9d" fill-opacity="1"><g transform="translate(156.353549, 206.047611)"><g><path d="M 30.703125 -49.921875 L 52.78125 -49.921875 L 52.78125 -24.390625 C 52.78125 -20.117188 52.050781 -16.363281 50.59375 -13.125 C 49.144531 -9.894531 47.171875 -7.195312 44.671875 -5.03125 C 42.179688 -2.863281 39.394531 -1.242188 36.3125 -0.171875 C 33.226562 0.890625 30.082031 1.421875 26.875 1.421875 C 23.613281 1.421875 20.441406 0.890625 17.359375 -0.171875 C 14.273438 -1.242188 11.484375 -2.863281 8.984375 -5.03125 C 6.492188 -7.195312 4.519531 -9.894531 3.0625 -13.125 C 1.613281 -16.363281 0.890625 -20.117188 0.890625 -24.390625 L 0.890625 -49.921875 L 22.96875 -49.921875 L 22.96875 -25.28125 C 22.96875 -23.738281 23.378906 -22.578125 24.203125 -21.796875 C 25.035156 -21.023438 25.925781 -20.640625 26.875 -20.640625 C 27.820312 -20.640625 28.695312 -21.023438 29.5 -21.796875 C 30.300781 -22.578125 30.703125 -23.738281 30.703125 -25.28125 Z M 30.703125 -49.921875 "/></g></g></g><path stroke-linecap="butt" transform="matrix(0.75, 0, 0, 0.75, 180.954163, 138.025978)" fill="none" stroke-linejoin="miter" d="M 56.920495 57.428908 L 86.352788 57.428908 L 86.352788 91.496618 C 86.352788 97.194536 85.37883 102.194536 83.425705 106.501828 C 81.493413 110.80912 78.868413 114.413287 75.545496 117.30912 C 72.222579 120.18412 68.509037 122.340371 64.394454 123.767454 C 60.27987 125.199746 56.087161 125.913287 51.821536 125.913287 C 47.472577 125.913287 43.24341 125.199746 39.128827 123.767454 C 35.019452 122.340371 31.300701 120.18412 27.977784 117.30912 C 24.654868 114.413287 22.019451 110.80912 20.071534 106.501828 C 18.139242 102.194536 17.170492 97.194536 17.170492 91.496618 L 17.170492 57.428908 L 46.602786 57.428908 L 46.602786 90.309118 C 46.602786 92.355994 47.154869 93.902869 48.259036 94.944535 C 49.357994 95.965369 50.545494 96.480994 51.821536 96.480994 C 53.092369 96.480994 54.264245 95.965369 55.326745 94.944535 C 56.389245 93.902869 56.920495 92.355994 56.920495 90.309118 Z M 56.920495 57.428908 " stroke="#fff9f9" stroke-width="8.900025" stroke-opacity="1" stroke-miterlimit="4"/><g fill="#3f0c9d" fill-opacity="1"><g transform="translate(192.942443, 231.025972)"><g><path d="M 30.703125 -49.921875 L 52.78125 -49.921875 L 52.78125 -24.390625 C 52.78125 -20.117188 52.050781 -16.363281 50.59375 -13.125 C 49.144531 -9.894531 47.171875 -7.195312 44.671875 -5.03125 C 42.179688 -2.863281 39.394531 -1.242188 36.3125 -0.171875 C 33.226562 0.890625 30.082031 1.421875 26.875 1.421875 C 23.613281 1.421875 20.441406 0.890625 17.359375 -0.171875 C 14.273438 -1.242188 11.484375 -2.863281 8.984375 -5.03125 C 6.492188 -7.195312 4.519531 -9.894531 3.0625 -13.125 C 1.613281 -16.363281 0.890625 -20.117188 0.890625 -24.390625 L 0.890625 -49.921875 L 22.96875 -49.921875 L 22.96875 -25.28125 C 22.96875 -23.738281 23.378906 -22.578125 24.203125 -21.796875 C 25.035156 -21.023438 25.925781 -20.640625 26.875 -20.640625 C 27.820312 -20.640625 28.695312 -21.023438 29.5 -21.796875 C 30.300781 -22.578125 30.703125 -23.738281 30.703125 -25.28125 Z M 30.703125 -49.921875 "/></g></g></g><g fill="#3f0c9d" fill-opacity="1"><g transform="translate(248.20074, 231.025972)"><g><path d="M 24.203125 0 C 19.640625 0 15.59375 -0.84375 12.0625 -2.53125 C 8.53125 -4.226562 5.769531 -6.765625 3.78125 -10.140625 C 1.789062 -13.523438 0.796875 -17.769531 0.796875 -22.875 L 0.796875 -62.390625 L 22.6875 -62.390625 L 22.6875 -49.921875 L 37.90625 -49.921875 L 37.90625 -29.28125 L 22.6875 -29.28125 L 22.6875 -21.890625 C 22.6875 -21.117188 23.078125 -20.734375 23.859375 -20.734375 L 37.90625 -20.734375 L 37.90625 0 Z M 24.203125 0 "/></g></g></g><g fill="#3f0c9d" fill-opacity="1"><g transform="translate(247.051667, 158.239223)"><g><path d="M 8 -3.0625 L 1.015625 -0.390625 L -3.34375 -11.78125 L -1.1875 -12.59375 L 2.4375 -3.125 L 7.265625 -4.984375 Z M 8 -3.0625 "/></g></g></g><g fill="#3f0c9d" fill-opacity="1"><g transform="translate(257.767982, 154.779627)"><g><path d="M 3.375 -0.375 L 1.09375 -0.125 L -0.234375 -12.25 L 2.046875 -12.5 Z M 3.375 -0.375 "/></g></g></g><g fill="#3f0c9d" fill-opacity="1"><g transform="translate(264.637839, 153.821171)"><g><path d="M 3.328125 0.640625 L 1.078125 0.203125 L 3.359375 -11.78125 L 5.90625 -11.296875 L 9.171875 -1.78125 L 10.8125 -10.359375 L 13.078125 -9.9375 L 10.796875 2.046875 L 8.25 1.5625 L 4.96875 -7.953125 Z M 3.328125 0.640625 "/></g></g></g><g fill="#3f0c9d" fill-opacity="1"><g transform="translate(278.416962, 156.965625)"><g><path d="M 2.875 1.8125 L 0.921875 0.578125 L 7.421875 -9.75 L 9.375 -8.515625 L 6.484375 -3.921875 L 13.015625 -6.21875 L 15.390625 -4.71875 L 8.125 -2.34375 L 9.03125 5.6875 L 6.609375 4.171875 L 5.890625 -2.96875 Z M 2.875 1.8125 "/></g></g></g><g fill="#3f0c9d" fill-opacity="1"><g transform="translate(289.092397, 164.104473)"><g><path d="M 3.40625 4.859375 C 3.050781 4.398438 2.742188 3.882812 2.484375 3.3125 C 2.234375 2.75 2.082031 2.164062 2.03125 1.5625 C 1.988281 0.96875 2.078125 0.367188 2.296875 -0.234375 C 2.515625 -0.835938 2.921875 -1.40625 3.515625 -1.9375 L 4.9375 -0.046875 C 4.570312 0.410156 4.347656 0.859375 4.265625 1.296875 C 4.191406 1.742188 4.226562 2.171875 4.375 2.578125 C 4.519531 2.992188 4.71875 3.367188 4.96875 3.703125 C 5.34375 4.203125 5.765625 4.539062 6.234375 4.71875 C 6.710938 4.90625 7.1875 4.820312 7.65625 4.46875 C 8 4.21875 8.179688 3.90625 8.203125 3.53125 C 8.222656 3.164062 8.148438 2.765625 7.984375 2.328125 C 7.828125 1.898438 7.632812 1.453125 7.40625 0.984375 C 7.195312 0.503906 6.992188 0.0234375 6.796875 -0.453125 C 6.609375 -0.941406 6.484375 -1.425781 6.421875 -1.90625 C 6.367188 -2.382812 6.429688 -2.847656 6.609375 -3.296875 C 6.785156 -3.753906 7.128906 -4.175781 7.640625 -4.5625 C 8.273438 -5.03125 8.914062 -5.269531 9.5625 -5.28125 C 10.207031 -5.300781 10.835938 -5.132812 11.453125 -4.78125 C 12.066406 -4.425781 12.617188 -3.921875 13.109375 -3.265625 C 13.585938 -2.628906 13.921875 -1.945312 14.109375 -1.21875 C 14.304688 -0.5 14.320312 0.210938 14.15625 0.921875 C 14 1.640625 13.601562 2.320312 12.96875 2.96875 L 11.546875 1.09375 C 11.972656 0.570312 12.164062 0.03125 12.125 -0.53125 C 12.09375 -1.09375 11.890625 -1.617188 11.515625 -2.109375 C 11.160156 -2.566406 10.773438 -2.875 10.359375 -3.03125 C 9.941406 -3.1875 9.546875 -3.125 9.171875 -2.84375 C 8.878906 -2.625 8.722656 -2.34375 8.703125 -2 C 8.691406 -1.664062 8.765625 -1.289062 8.921875 -0.875 C 9.085938 -0.457031 9.269531 -0.0195312 9.46875 0.4375 C 9.6875 0.90625 9.890625 1.394531 10.078125 1.90625 C 10.273438 2.414062 10.398438 2.925781 10.453125 3.4375 C 10.515625 3.945312 10.445312 4.441406 10.25 4.921875 C 10.0625 5.398438 9.691406 5.847656 9.140625 6.265625 C 8.222656 6.953125 7.253906 7.175781 6.234375 6.9375 C 5.210938 6.707031 4.269531 6.015625 3.40625 4.859375 Z M 3.40625 4.859375 "/></g></g></g></svg>